<svg width="1208" height="518" viewBox="0 0 1208 518" fill="none" xmlns="http://www.w3.org/2000/svg">
<path d="M0 97.9696C0 43.8625 39.2109 0 87.58 0H1120.42C1168.79 0 1208 43.8625 1208 97.9696C1208 131.328 1193.1 160.793 1170.33 178.485C1193.1 196.177 1208 225.641 1208 259C1208 292.359 1193.1 321.823 1170.33 339.515C1193.1 357.207 1208 386.672 1208 420.03C1208 474.138 1168.79 518 1120.42 518H87.58C39.2109 518 0 474.138 0 420.03C0 386.672 14.9043 357.207 37.6702 339.515C14.9043 321.823 0 292.359 0 259C0 225.641 14.9043 196.177 37.6702 178.485C14.9043 160.793 0 131.328 0 97.9696Z" fill="#57ACBC"/>
<mask id="mask0_0_2205" style="mask-type:alpha" maskUnits="userSpaceOnUse" x="792" y="0" width="416" height="518">
<path d="M792 97.9696C792 43.8625 831.234 0 879.632 0H1120.37C1168.77 0 1208 43.8625 1208 97.9696C1208 131.328 1193.09 160.793 1170.31 178.485C1193.09 196.177 1208 225.641 1208 259C1208 292.359 1193.09 321.823 1170.31 339.515C1193.09 357.207 1208 386.672 1208 420.03C1208 474.138 1168.77 518 1120.37 518H879.632C831.234 518 792 474.138 792 420.03C792 386.672 806.913 357.207 829.693 339.515C806.913 321.823 792 292.358 792 259C792 225.641 806.913 196.177 829.693 178.485C806.913 160.793 792 131.328 792 97.9696Z" fill="#FCFAF9"/>
</mask>
<g mask="url(#mask0_0_2205)">
<rect x="792" width="416" height="518" fill="#1B1F21"/>
<path d="M1010.51 -291.014C1102.75 -225.045 1430.78 142.789 1284.26 249.028C1096.25 385.353 756.802 141.678 868.131 17.5354C1015.53 -146.826 1379.54 316.594 1258.77 460.71C1138 604.826 883.348 540.512 596.531 171.916" stroke="#434343" stroke-width="15" stroke-linecap="round" stroke-dasharray="43 42"/>
<path d="M1001.76 294.728L884.053 420.033L1149.38 382.867L1001.76 294.728Z" fill="#FE6D44"/>
<path fill-rule="evenodd" clip-rule="evenodd" d="M1125.65 375.377L1119.4 376.254C1118.19 376.422 1117.35 377.534 1117.52 378.738C1117.69 379.941 1118.8 380.78 1120.01 380.611L1126.26 379.735C1127.47 379.566 1128.3 378.454 1128.14 377.251C1127.97 376.047 1126.86 375.209 1125.65 375.377ZM1100.63 378.883L1088.11 380.636C1086.91 380.804 1086.07 381.916 1086.24 383.12C1086.41 384.323 1087.52 385.162 1088.72 384.993L1101.24 383.24C1102.44 383.072 1103.28 381.96 1103.11 380.756C1102.94 379.553 1101.83 378.714 1100.63 378.883ZM1069.34 383.265L1056.83 385.018C1055.63 385.186 1054.79 386.298 1054.96 387.501C1055.13 388.705 1056.24 389.544 1057.44 389.375L1069.95 387.622C1071.16 387.454 1072 386.342 1071.83 385.138C1071.66 383.935 1070.55 383.096 1069.34 383.265ZM1038.06 387.647L1025.55 389.4C1024.35 389.568 1023.51 390.68 1023.67 391.883C1023.84 393.087 1024.96 393.926 1026.16 393.757L1038.67 392.004C1039.88 391.836 1040.71 390.724 1040.55 389.52C1040.38 388.317 1039.26 387.478 1038.06 387.647ZM1006.78 392.029L994.266 393.781C993.063 393.95 992.224 395.062 992.393 396.265C992.561 397.469 993.673 398.307 994.877 398.139L1007.39 396.386C1008.59 396.218 1009.43 395.105 1009.26 393.902C1009.09 392.699 1007.98 391.86 1006.78 392.029ZM975.497 396.411L962.984 398.163C961.781 398.332 960.942 399.444 961.11 400.647C961.279 401.851 962.391 402.689 963.594 402.521L976.107 400.768C977.31 400.6 978.149 399.487 977.981 398.284C977.812 397.081 976.7 396.242 975.497 396.411ZM944.215 400.793L931.702 402.545C930.498 402.714 929.66 403.826 929.828 405.029C929.997 406.233 931.109 407.071 932.312 406.903L944.825 405.15C946.028 404.982 946.867 403.869 946.698 402.666C946.53 401.463 945.418 400.624 944.215 400.793ZM912.932 405.175L906.676 406.051C905.473 406.22 904.634 407.332 904.802 408.535C904.971 409.738 906.083 410.577 907.286 410.408L913.543 409.532C914.746 409.363 915.585 408.251 915.416 407.048C915.248 405.845 914.136 405.006 912.932 405.175Z" fill="#1B1F21"/>
<path d="M1005.21 313.891L1149.38 382.865L1124.88 207.959L1005.21 313.891Z" fill="#FE6D44"/>
<path d="M1005.21 313.891L1149.38 382.865L1124.88 207.959L1005.21 313.891Z" fill="#FCFAF9" fill-opacity="0.12"/>
<path fill-rule="evenodd" clip-rule="evenodd" d="M1139.56 367.998C1140.22 367.521 1140.56 366.717 1140.45 365.909L1139.45 358.728C1139.28 357.525 1138.17 356.686 1136.96 356.855C1135.76 357.023 1134.92 358.135 1135.09 359.339L1135.52 362.395L1132.88 361.093C1131.8 360.554 1130.48 361 1129.94 362.089C1129.4 363.178 1129.84 364.498 1130.93 365.037L1137.3 368.186C1138.03 368.548 1138.9 368.475 1139.56 367.998ZM1135.56 346.85C1136.76 346.682 1137.6 345.57 1137.43 344.367L1135.42 330.005C1135.25 328.802 1134.14 327.963 1132.94 328.131C1131.74 328.3 1130.9 329.412 1131.06 330.615L1133.08 344.977C1133.25 346.18 1134.36 347.019 1135.56 346.85ZM1131.54 318.127C1132.74 317.959 1133.58 316.847 1133.41 315.643L1131.4 301.282C1131.23 300.079 1130.12 299.24 1128.91 299.408C1127.71 299.577 1126.87 300.689 1127.04 301.892L1129.05 316.254C1129.22 317.457 1130.33 318.296 1131.54 318.127ZM1127.51 289.404C1128.72 289.236 1129.56 288.124 1129.39 286.92L1127.38 272.559C1127.21 271.355 1126.09 270.517 1124.89 270.685C1123.69 270.854 1122.85 271.966 1123.02 273.169L1125.03 287.531C1125.2 288.734 1126.31 289.573 1127.51 289.404ZM1123.49 260.681C1124.69 260.513 1125.53 259.4 1125.36 258.197L1124.36 251.016C1124.19 249.813 1123.08 248.974 1121.87 249.143C1120.67 249.311 1119.83 250.423 1120 251.627L1121.01 258.808C1121.17 260.011 1122.29 260.85 1123.49 260.681ZM1121.15 357.742C1121.69 356.653 1121.25 355.333 1120.16 354.795L1107.43 348.496C1106.34 347.957 1105.02 348.403 1104.48 349.492C1103.94 350.581 1104.39 351.901 1105.48 352.44L1118.21 358.738C1119.29 359.277 1120.61 358.831 1121.15 357.742ZM1095.7 345.145C1096.24 344.056 1095.79 342.736 1094.7 342.197L1081.97 335.899C1080.89 335.36 1079.57 335.806 1079.03 336.895C1078.49 337.984 1078.93 339.304 1080.02 339.842L1092.75 346.141C1093.84 346.68 1095.16 346.234 1095.7 345.145ZM1070.24 332.548C1070.78 331.459 1070.34 330.139 1069.25 329.6L1056.52 323.302C1055.43 322.763 1054.11 323.209 1053.57 324.298C1053.03 325.387 1053.48 326.706 1054.57 327.245L1067.3 333.544C1068.38 334.083 1069.7 333.637 1070.24 332.548ZM1044.79 319.951C1045.33 318.862 1044.88 317.542 1043.79 317.003L1037.43 313.854C1036.34 313.315 1035.02 313.761 1034.48 314.85C1033.94 315.939 1034.39 317.259 1035.48 317.797L1041.84 320.947C1042.93 321.486 1044.25 321.04 1044.79 319.951Z" fill="#1B1F21"/>
<path d="M1003.72 314.101L884.053 420.033L859.552 245.127L1003.72 314.101Z" fill="#FE6D44"/>
<path d="M1003.72 314.101L884.053 420.033L859.552 245.127L1003.72 314.101Z" fill="#FCFAF9" fill-opacity="0.12"/>
<path fill-rule="evenodd" clip-rule="evenodd" d="M870.317 259.405C871.52 259.234 872.633 260.072 872.803 261.275L873.786 268.22C873.957 269.423 873.12 270.536 871.916 270.707C870.713 270.877 869.6 270.04 869.43 268.837L868.447 261.891C868.277 260.688 869.114 259.575 870.317 259.405ZM873.266 280.241C874.469 280.071 875.582 280.908 875.753 282.111L877.719 296.002C877.889 297.205 877.052 298.319 875.849 298.489C874.646 298.659 873.532 297.822 873.362 296.619L871.396 282.728C871.226 281.525 872.063 280.411 873.266 280.241ZM877.198 308.023C878.401 307.853 879.514 308.69 879.685 309.893L881.651 323.785C881.821 324.988 880.984 326.101 879.781 326.271C878.578 326.441 877.464 325.604 877.294 324.401L875.328 310.51C875.158 309.307 875.995 308.194 877.198 308.023ZM881.13 335.806C882.333 335.635 883.447 336.473 883.617 337.676L885.583 351.567C885.753 352.77 884.916 353.883 883.713 354.053C882.51 354.224 881.397 353.386 881.226 352.183L879.26 338.292C879.09 337.089 879.927 335.976 881.13 335.806ZM885.062 363.588C886.265 363.418 887.379 364.255 887.549 365.458L889.515 379.349C889.685 380.552 888.848 381.665 887.645 381.836C886.442 382.006 885.329 381.169 885.159 379.966L883.192 366.074C883.022 364.871 883.859 363.758 885.062 363.588ZM888.995 391.37C890.198 391.2 891.311 392.037 891.481 393.24L891.882 396.07L894.06 394.089C894.959 393.272 896.35 393.338 897.167 394.237C897.985 395.136 897.919 396.528 897.02 397.345L891.766 402.122C891.163 402.67 890.306 402.84 889.54 402.563C888.773 402.287 888.222 401.609 888.108 400.802L887.125 393.857C886.954 392.654 887.792 391.54 888.995 391.37ZM904.419 387.644C903.602 386.745 903.668 385.354 904.567 384.536L915.074 374.983C915.973 374.166 917.364 374.232 918.182 375.131C918.999 376.03 918.933 377.421 918.034 378.239L907.527 387.792C906.628 388.609 905.236 388.543 904.419 387.644ZM925.433 368.538C924.616 367.639 924.682 366.247 925.581 365.43L936.088 355.877C936.987 355.059 938.379 355.125 939.196 356.024C940.013 356.923 939.947 358.315 939.048 359.132L928.541 368.685C927.642 369.503 926.251 369.437 925.433 368.538ZM946.448 349.431C945.63 348.532 945.696 347.141 946.595 346.323L957.103 336.77C958.002 335.953 959.393 336.019 960.21 336.918C961.028 337.817 960.962 339.208 960.063 340.026L949.555 349.579C948.656 350.396 947.265 350.33 946.448 349.431ZM967.462 330.325C966.645 329.426 966.711 328.034 967.61 327.217L972.863 322.44C973.762 321.623 975.154 321.689 975.971 322.588C976.788 323.487 976.722 324.878 975.823 325.696L970.57 330.472C969.671 331.29 968.279 331.224 967.462 330.325Z" fill="#1B1F21"/>
<path d="M1007.16 333.265L859.552 245.126L1124.88 207.96L1007.16 333.265Z" fill="#FE6D44"/>
<path d="M1007.16 333.265L859.552 245.126L1124.88 207.96L1007.16 333.265Z" fill="#FCFAF9" fill-opacity="0.25"/>
<path fill-rule="evenodd" clip-rule="evenodd" d="M1112.89 205.882C1113.9 206.827 1113.95 208.409 1113 209.416L1108.75 213.935C1107.81 214.942 1106.23 214.991 1105.22 214.046C1104.21 213.1 1104.16 211.518 1105.11 210.512L1109.36 205.992C1110.3 204.986 1111.88 204.936 1112.89 205.882ZM870.505 239.835C871.213 238.649 872.748 238.262 873.933 238.97L879.258 242.149C880.443 242.857 880.83 244.392 880.123 245.577C879.415 246.763 877.88 247.15 876.694 246.442L871.37 243.263C870.184 242.555 869.797 241.02 870.505 239.835ZM1099.5 220.137C1100.5 221.082 1100.55 222.664 1099.61 223.671L1091.12 232.71C1090.17 233.717 1088.59 233.766 1087.58 232.821C1086.58 231.875 1086.53 230.293 1087.47 229.287L1095.96 220.247C1096.91 219.241 1098.49 219.191 1099.5 220.137ZM887.298 249.861C888.006 248.676 889.54 248.289 890.726 248.997L901.375 255.355C902.56 256.063 902.948 257.598 902.24 258.783C901.532 259.969 899.997 260.356 898.812 259.648L888.163 253.29C886.977 252.582 886.59 251.047 887.298 249.861ZM1081.86 238.912C1082.87 239.857 1082.92 241.439 1081.97 242.446L1073.48 251.485C1072.53 252.492 1070.95 252.541 1069.95 251.596C1068.94 250.65 1068.89 249.068 1069.84 248.062L1078.33 239.022C1079.27 238.016 1080.86 237.966 1081.86 238.912ZM909.415 263.068C910.123 261.882 911.658 261.495 912.843 262.203L923.492 268.561C924.678 269.269 925.065 270.804 924.357 271.99C923.649 273.175 922.114 273.562 920.929 272.854L910.28 266.496C909.094 265.788 908.707 264.253 909.415 263.068ZM1064.22 257.687C1065.23 258.632 1065.28 260.214 1064.33 261.221L1055.84 270.26C1054.9 271.267 1053.32 271.316 1052.31 270.371C1051.3 269.425 1051.25 267.843 1052.2 266.837L1060.69 257.797C1061.64 256.791 1063.22 256.741 1064.22 257.687ZM931.532 276.274C932.24 275.088 933.775 274.701 934.96 275.409L945.609 281.768C946.795 282.476 947.182 284.01 946.474 285.196C945.766 286.381 944.231 286.768 943.046 286.061L932.397 279.702C931.211 278.994 930.824 277.459 931.532 276.274ZM1046.59 276.462C1047.59 277.407 1047.64 278.989 1046.7 279.995L1038.21 289.035C1037.26 290.042 1035.68 290.091 1034.67 289.146C1033.67 288.2 1033.62 286.618 1034.56 285.612L1043.05 276.572C1044 275.566 1045.58 275.516 1046.59 276.462ZM953.649 289.48C954.357 288.295 955.892 287.908 957.077 288.615L967.726 294.974C968.912 295.682 969.299 297.217 968.591 298.402C967.883 299.588 966.349 299.975 965.163 299.267L954.514 292.908C953.329 292.2 952.941 290.666 953.649 289.48ZM1028.95 295.237C1029.96 296.182 1030.01 297.764 1029.06 298.77L1020.57 307.81C1019.62 308.817 1018.04 308.866 1017.03 307.921C1016.03 306.975 1015.98 305.393 1016.92 304.387L1025.42 295.347C1026.36 294.341 1027.94 294.291 1028.95 295.237ZM975.766 302.686C976.474 301.501 978.009 301.114 979.195 301.822L989.844 308.18C991.029 308.888 991.416 310.423 990.708 311.608C990.001 312.794 988.466 313.181 987.28 312.473L976.631 306.115C975.446 305.407 975.059 303.872 975.766 302.686ZM997.884 315.893C998.591 314.707 1000.13 314.32 1001.31 315.028L1004.91 317.176L1007.78 314.122C1008.72 313.116 1010.31 313.066 1011.31 314.012C1012.32 314.957 1012.37 316.539 1011.42 317.545L1007.18 322.065C1006.37 322.921 1005.08 323.102 1004.07 322.5L998.748 319.321C997.563 318.613 997.176 317.078 997.884 315.893Z" fill="#1B1F21"/>
<circle cx="1121.07" cy="213.419" r="30.4847" transform="rotate(-7.974 1121.07 213.419)" fill="#57ACBC"/>
<path d="M1133.11 218.071L1133.93 223.919L1113.8 226.739L1112.98 220.89L1119.31 220.005L1117.65 208.195L1111.33 209.08L1110.71 204.675C1112.43 204.331 1114.31 203.617 1116.34 202.531C1118.38 201.421 1120.12 200.234 1121.58 198.971L1124.18 198.608L1127.02 218.924L1133.11 218.071Z" fill="#FFFFFE"/>
<g opacity="0.62" filter="url(#filter0_f_0_2205)">
<path d="M1009.11 113.019L960 134.695L1040.8 156.346L1009.11 113.019Z" fill="#FE6D44"/>
<path fill-rule="evenodd" clip-rule="evenodd" d="M1034.9 151.28L1033 150.77C1032.62 150.668 1032.23 150.893 1032.13 151.271C1032.02 151.65 1032.25 152.039 1032.63 152.141L1034.53 152.651C1034.91 152.753 1035.3 152.528 1035.4 152.149C1035.5 151.771 1035.28 151.382 1034.9 151.28ZM1027.28 149.238L1023.47 148.217C1023.09 148.115 1022.7 148.34 1022.6 148.719C1022.5 149.097 1022.72 149.487 1023.1 149.588L1026.91 150.609C1027.29 150.711 1027.68 150.486 1027.78 150.107C1027.88 149.729 1027.66 149.339 1027.28 149.238ZM1017.75 146.685L1013.94 145.664C1013.56 145.563 1013.17 145.787 1013.07 146.166C1012.97 146.545 1013.2 146.934 1013.57 147.035L1017.39 148.056C1017.76 148.158 1018.15 147.933 1018.25 147.555C1018.36 147.176 1018.13 146.787 1017.75 146.685ZM1008.23 144.133L1004.42 143.111C1004.04 143.01 1003.65 143.235 1003.55 143.613C1003.44 143.992 1003.67 144.381 1004.05 144.483L1007.86 145.504C1008.24 145.605 1008.63 145.38 1008.73 145.002C1008.83 144.623 1008.6 144.234 1008.23 144.133ZM998.699 141.58L994.888 140.559C994.51 140.457 994.12 140.682 994.019 141.061C993.918 141.439 994.142 141.828 994.521 141.93L998.332 142.951C998.71 143.052 999.099 142.828 999.201 142.449C999.302 142.07 999.078 141.681 998.699 141.58ZM989.172 139.027L985.361 138.006C984.983 137.905 984.594 138.129 984.492 138.508C984.391 138.887 984.615 139.276 984.994 139.377L988.805 140.398C989.183 140.5 989.573 140.275 989.674 139.896C989.776 139.518 989.551 139.129 989.172 139.027ZM979.645 136.474L975.835 135.453C975.456 135.352 975.067 135.577 974.965 135.955C974.864 136.334 975.089 136.723 975.467 136.824L979.278 137.846C979.657 137.947 980.046 137.722 980.147 137.344C980.249 136.965 980.024 136.576 979.645 136.474ZM970.119 133.922L968.213 133.411C967.835 133.31 967.445 133.534 967.344 133.913C967.242 134.292 967.467 134.681 967.846 134.782L969.751 135.293C970.13 135.394 970.519 135.17 970.62 134.791C970.722 134.412 970.497 134.023 970.119 133.922Z" fill="#1B1F21"/>
<path d="M1007.76 118.948L1040.8 156.346L1055.08 103.079L1007.76 118.948Z" fill="#FE6D44"/>
<path d="M1007.76 118.948L1040.8 156.346L1055.08 103.079L1007.76 118.948Z" fill="#FCFAF9" fill-opacity="0.12"/>
<path fill-rule="evenodd" clip-rule="evenodd" d="M1039.8 150.898C1040.05 150.839 1040.26 150.644 1040.33 150.39L1040.91 148.203C1041.01 147.824 1040.79 147.435 1040.41 147.333C1040.03 147.232 1039.64 147.457 1039.54 147.835L1039.3 148.725L1038.73 148.062C1038.48 147.765 1038.03 147.731 1037.73 147.987C1037.43 148.242 1037.4 148.691 1037.66 148.988L1039.1 150.669C1039.27 150.868 1039.54 150.956 1039.8 150.898ZM1041.21 144.331C1041.59 144.432 1041.98 144.208 1042.08 143.829L1043.26 139.455C1043.36 139.077 1043.13 138.687 1042.75 138.586C1042.38 138.485 1041.99 138.709 1041.88 139.088L1040.71 143.462C1040.61 143.84 1040.84 144.229 1041.21 144.331ZM1043.56 135.583C1043.94 135.685 1044.33 135.46 1044.43 135.082L1045.6 130.708C1045.7 130.329 1045.48 129.94 1045.1 129.839C1044.72 129.737 1044.33 129.962 1044.23 130.34L1043.06 134.714C1042.95 135.093 1043.18 135.482 1043.56 135.583ZM1045.9 126.836C1046.28 126.937 1046.67 126.713 1046.77 126.334L1047.94 121.96C1048.04 121.582 1047.82 121.193 1047.44 121.091C1047.06 120.99 1046.67 121.214 1046.57 121.593L1045.4 125.967C1045.3 126.345 1045.52 126.735 1045.9 126.836ZM1048.25 118.089C1048.62 118.19 1049.01 117.965 1049.12 117.587L1049.7 115.4C1049.8 115.021 1049.58 114.632 1049.2 114.531C1048.82 114.429 1048.43 114.654 1048.33 115.032L1047.74 117.219C1047.64 117.598 1047.87 117.987 1048.25 118.089ZM1035.77 145.701C1036.06 145.446 1036.1 144.998 1035.84 144.7L1032.95 141.339C1032.69 141.041 1032.25 141.008 1031.95 141.263C1031.65 141.519 1031.62 141.967 1031.87 142.264L1034.77 145.626C1035.02 145.923 1035.47 145.957 1035.77 145.701ZM1029.98 138.978C1030.28 138.722 1030.31 138.274 1030.06 137.977L1027.17 134.615C1026.91 134.318 1026.46 134.284 1026.17 134.54C1025.87 134.795 1025.84 135.243 1026.09 135.541L1028.98 138.902C1029.24 139.2 1029.69 139.233 1029.98 138.978ZM1024.2 132.254C1024.5 131.999 1024.53 131.55 1024.28 131.253L1021.39 127.891C1021.13 127.594 1020.68 127.561 1020.38 127.816C1020.09 128.072 1020.05 128.52 1020.31 128.817L1023.2 132.179C1023.46 132.476 1023.9 132.51 1024.2 132.254ZM1018.42 125.531C1018.72 125.275 1018.75 124.827 1018.49 124.53L1017.05 122.849C1016.79 122.552 1016.34 122.518 1016.05 122.773C1015.75 123.029 1015.72 123.477 1015.97 123.774L1017.42 125.455C1017.67 125.753 1018.12 125.786 1018.42 125.531Z" fill="#1B1F21"/>
<path d="M1007.31 118.827L960 134.695L974.273 81.4289L1007.31 118.827Z" fill="#FE6D44"/>
<path d="M1007.31 118.827L960 134.695L974.273 81.4289L1007.31 118.827Z" fill="#FCFAF9" fill-opacity="0.12"/>
<path fill-rule="evenodd" clip-rule="evenodd" d="M975.633 86.8226C976.012 86.9235 976.237 87.3123 976.136 87.6911L975.572 89.8076C975.471 90.1864 975.082 90.4116 974.704 90.3107C974.325 90.2098 974.1 89.8209 974.201 89.4421L974.764 87.3257C974.865 86.9469 975.254 86.7217 975.633 86.8226ZM973.941 93.1719C974.32 93.2729 974.545 93.6617 974.445 94.0405L973.317 98.2734C973.216 98.6522 972.827 98.8774 972.448 98.7765C972.069 98.6756 971.844 98.2868 971.945 97.908L973.073 93.6751C973.174 93.2963 973.563 93.071 973.941 93.1719ZM971.686 101.638C972.065 101.739 972.29 102.128 972.189 102.506L971.061 106.739C970.96 107.118 970.572 107.343 970.193 107.242C969.814 107.141 969.589 106.753 969.69 106.374L970.817 102.141C970.918 101.762 971.307 101.537 971.686 101.638ZM969.431 110.104C969.809 110.205 970.035 110.593 969.934 110.972L968.806 115.205C968.705 115.584 968.316 115.809 967.937 115.708C967.559 115.607 967.333 115.218 967.434 114.84L968.562 110.607C968.663 110.228 969.052 110.003 969.431 110.104ZM967.175 118.569C967.554 118.67 967.779 119.059 967.678 119.438L966.55 123.671C966.45 124.05 966.061 124.275 965.682 124.174C965.303 124.073 965.078 123.684 965.179 123.305L966.307 119.073C966.407 118.694 966.796 118.469 967.175 118.569ZM964.92 127.035C965.298 127.136 965.524 127.525 965.423 127.904L965.204 128.724L966.031 128.435C966.401 128.305 966.806 128.5 966.935 128.87C967.065 129.24 966.87 129.645 966.5 129.775L964.408 130.507C964.159 130.594 963.884 130.537 963.691 130.358C963.498 130.18 963.419 129.909 963.487 129.655L964.051 127.538C964.152 127.16 964.541 126.934 964.92 127.035ZM969.78 127.874C969.651 127.504 969.846 127.099 970.216 126.969L974.4 125.503C974.77 125.374 975.175 125.569 975.305 125.939C975.434 126.308 975.24 126.713 974.87 126.843L970.685 128.309C970.315 128.438 969.91 128.243 969.78 127.874ZM978.15 124.942C978.02 124.572 978.215 124.167 978.585 124.037L982.77 122.572C983.14 122.442 983.545 122.637 983.674 123.007C983.804 123.377 983.609 123.782 983.239 123.911L979.054 125.377C978.684 125.507 978.279 125.312 978.15 124.942ZM986.519 122.01C986.39 121.64 986.585 121.236 986.955 121.106L991.139 119.64C991.509 119.511 991.914 119.705 992.044 120.075C992.174 120.445 991.979 120.85 991.609 120.98L987.424 122.446C987.054 122.575 986.649 122.38 986.519 122.01ZM994.889 119.079C994.759 118.709 994.954 118.304 995.324 118.174L997.417 117.442C997.787 117.312 998.192 117.507 998.321 117.877C998.451 118.247 998.256 118.652 997.886 118.781L995.794 119.514C995.424 119.644 995.019 119.449 994.889 119.079Z" fill="#1B1F21"/>
<path d="M1005.97 124.756L974.273 81.4287L1055.08 103.08L1005.97 124.756Z" fill="#FE6D44"/>
<path d="M1005.97 124.756L974.273 81.4287L1055.08 103.08L1005.97 124.756Z" fill="#FCFAF9" fill-opacity="0.25"/>
<path fill-rule="evenodd" clip-rule="evenodd" d="M1051.91 101.011C1052.09 101.419 1051.9 101.895 1051.49 102.075L1049.72 102.856C1049.32 103.036 1048.84 102.852 1048.66 102.444C1048.48 102.037 1048.66 101.561 1049.07 101.381L1050.84 100.599C1051.25 100.419 1051.73 100.603 1051.91 101.011ZM978.051 81.2214C978.41 80.9584 978.915 81.0367 979.178 81.3962L980.321 82.9591C980.584 83.3186 980.506 83.8232 980.146 84.0862C979.787 84.3492 979.282 84.2709 979.019 83.9114L977.876 82.3485C977.613 81.989 977.691 81.4844 978.051 81.2214ZM1046.32 103.477C1046.5 103.884 1046.32 104.361 1045.91 104.54L1042.36 106.104C1041.96 106.284 1041.48 106.1 1041.3 105.692C1041.12 105.285 1041.31 104.808 1041.71 104.629L1045.26 103.065C1045.66 102.885 1046.14 103.069 1046.32 103.477ZM981.656 86.1504C982.016 85.8874 982.52 85.9657 982.783 86.3252L985.07 89.4509C985.333 89.8105 985.255 90.3151 984.895 90.5781C984.536 90.8411 984.031 90.7628 983.768 90.4033L981.482 87.2776C981.219 86.918 981.297 86.4134 981.656 86.1504ZM1038.96 106.725C1039.14 107.132 1038.96 107.608 1038.55 107.788L1035.01 109.352C1034.6 109.532 1034.12 109.347 1033.94 108.94C1033.76 108.532 1033.95 108.056 1034.36 107.876L1037.9 106.313C1038.31 106.133 1038.78 106.317 1038.96 106.725ZM986.405 92.6423C986.764 92.3793 987.269 92.4576 987.532 92.8171L989.818 95.9428C990.081 96.3023 990.003 96.807 989.644 97.0699C989.284 97.3329 988.779 97.2547 988.516 96.8951L986.23 93.7694C985.967 93.4099 986.045 92.9053 986.405 92.6423ZM1031.6 109.973C1031.78 110.38 1031.6 110.856 1031.19 111.036L1027.65 112.6C1027.24 112.78 1026.76 112.595 1026.58 112.188C1026.4 111.78 1026.59 111.304 1027 111.124L1030.54 109.56C1030.95 109.381 1031.42 109.565 1031.6 109.973ZM991.154 99.1341C991.513 98.8712 992.018 98.9494 992.281 99.3089L994.567 102.435C994.83 102.794 994.752 103.299 994.392 103.562C994.033 103.825 993.528 103.747 993.265 103.387L990.979 100.261C990.716 99.9018 990.794 99.3971 991.154 99.1341ZM1024.24 113.22C1024.42 113.628 1024.24 114.104 1023.83 114.284L1020.29 115.848C1019.88 116.028 1019.41 115.843 1019.23 115.436C1019.05 115.028 1019.23 114.552 1019.64 114.372L1023.18 112.808C1023.59 112.628 1024.06 112.813 1024.24 113.22ZM995.902 105.626C996.262 105.363 996.766 105.441 997.029 105.801L999.316 108.927C999.579 109.286 999.5 109.791 999.141 110.054C998.781 110.317 998.277 110.238 998.014 109.879L995.727 106.753C995.464 106.394 995.543 105.889 995.902 105.626ZM1016.89 116.468C1017.07 116.876 1016.88 117.352 1016.47 117.532L1012.93 119.096C1012.52 119.275 1012.05 119.091 1011.87 118.683C1011.69 118.276 1011.87 117.8 1012.28 117.62L1015.82 116.056C1016.23 115.876 1016.71 116.061 1016.89 116.468ZM1000.65 112.118C1001.01 111.855 1001.51 111.933 1001.78 112.293L1004.06 115.418C1004.33 115.778 1004.25 116.283 1003.89 116.546C1003.53 116.809 1003.03 116.73 1002.76 116.371L1000.48 113.245C1000.21 112.886 1000.29 112.381 1000.65 112.118ZM1005.4 118.61C1005.76 118.347 1006.26 118.425 1006.53 118.785L1007.29 119.824L1008.46 119.304C1008.87 119.124 1009.35 119.308 1009.53 119.716C1009.71 120.124 1009.52 120.6 1009.12 120.78L1007.34 121.561C1007 121.714 1006.59 121.606 1006.37 121.3L1005.22 119.737C1004.96 119.377 1005.04 118.873 1005.4 118.61Z" fill="#1B1F21"/>
</g>
</g>
<defs>
<filter id="filter0_f_0_2205" x="952" y="73.0657" width="111.075" height="91.2805" filterUnits="userSpaceOnUse" color-interpolation-filters="sRGB">
<feFlood flood-opacity="0" result="BackgroundImageFix"/>
<feBlend mode="normal" in="SourceGraphic" in2="BackgroundImageFix" result="shape"/>
<feGaussianBlur stdDeviation="4" result="effect1_foregroundBlur_0_2205"/>
</filter>
</defs>
</svg>
