<svg width="704" height="498" viewBox="0 0 704 498" fill="none" xmlns="http://www.w3.org/2000/svg">
<g clip-path="url(#clip0_1003_2431)">
<path d="M-6.10352e-05 0H493C528.346 0 557 28.6538 557 64V434C557 469.346 528.346 498 493 498H-6.10352e-05V0Z" fill="#57ACBC"/>
<path d="M788.562 212.698C692.718 133.954 217.187 -127.736 156.1 26.3782C77.7154 224.136 431.345 513.789 521.652 390.713C641.216 227.762 57.6809 -55.0381 -49.8327 79.7765C-157.346 214.591 -11.8393 448.189 451.437 670.541" stroke="#F2F2F2" stroke-opacity="0.2" stroke-width="20" stroke-linecap="round"/>
<mask id="mask0_1003_2431" style="mask-type:alpha" maskUnits="userSpaceOnUse" x="416" y="0" width="288" height="498">
<path d="M416 78.411C416 35.1058 451.106 0 494.411 0C537.716 0 572.822 35.1058 572.822 78.411V419.589C572.822 462.894 537.716 498 494.411 498C451.106 498 416 462.894 416 419.589V78.411Z" fill="#1B1F21"/>
<path d="M547.178 78.411C547.178 35.1058 582.284 0 625.589 0C668.894 0 704 35.1058 704 78.411V419.589C704 462.894 668.894 498 625.589 498C582.284 498 547.178 462.894 547.178 419.589V78.411Z" fill="#1B1F21"/>
</mask>
<g mask="url(#mask0_1003_2431)">
<rect x="416" width="288" height="516" fill="#1B1F21"/>
<path fill-rule="evenodd" clip-rule="evenodd" d="M701.158 38.5554C695.425 29.757 689.457 20.9852 683.322 12.2951C681.465 9.66421 682.272 5.87317 685.126 3.82762C687.979 1.78207 691.798 2.25661 693.655 4.88754C699.86 13.6776 705.903 22.5594 711.714 31.4772C713.473 34.1764 712.536 37.949 709.621 39.9036C706.706 41.8582 702.917 41.2546 701.158 38.5554ZM673.604 -11.9423C670.806 -9.82157 666.965 -10.1863 665.026 -12.7569C658.595 -21.2828 652.063 -29.6691 645.5 -37.8593C643.487 -40.3721 644.08 -44.1837 646.825 -46.3728C649.57 -48.5619 653.428 -48.2995 655.442 -45.7868C662.067 -37.5188 668.663 -29.0501 675.16 -20.437C677.099 -17.8663 676.402 -14.0632 673.604 -11.9423ZM719.959 56.5083C722.942 54.6636 726.69 55.4182 728.331 58.1936C733.92 67.6502 739.177 77.0916 744.018 86.4518C745.501 89.3195 744.219 93.0205 741.154 94.7184C738.09 96.4162 734.403 95.4679 732.92 92.6003C728.182 83.4394 723.025 74.1757 717.527 64.8738C715.887 62.0984 716.975 58.353 719.959 56.5083ZM634.403 -61.4474C631.708 -59.1963 627.837 -59.3636 625.756 -61.8209C618.73 -70.1155 611.75 -78.1182 604.9 -85.7597C602.75 -88.1583 603.147 -91.9783 605.786 -94.2919C608.426 -96.6056 612.309 -96.5367 614.459 -94.1381C621.375 -86.4225 628.422 -78.3443 635.512 -69.9728C637.594 -67.5155 637.097 -63.6985 634.403 -61.4474ZM749.557 112.404C752.716 110.905 756.306 112.103 757.577 115.08C762.037 125.527 765.85 135.801 768.882 145.802C769.826 148.915 767.939 152.403 764.668 153.592C761.397 154.78 757.98 153.22 757.036 150.107C754.139 140.548 750.47 130.65 746.139 120.507C744.869 117.53 746.399 113.902 749.557 112.404ZM592.494 -108.695C589.915 -106.315 586.022 -106.278 583.8 -108.612C575.987 -116.815 568.5 -124.381 561.489 -131.19C559.175 -133.436 559.324 -137.253 561.822 -139.714C564.32 -142.176 568.22 -142.35 570.534 -140.103C577.654 -133.188 585.24 -125.522 593.139 -117.228C595.362 -114.894 595.073 -111.074 592.494 -108.695ZM547.367 -153.041C545.012 -150.45 541.109 -150.049 538.651 -152.145C534.154 -155.979 530.106 -159.213 526.576 -161.803C523.964 -163.718 523.616 -167.482 525.8 -170.209C527.984 -172.936 531.871 -173.593 534.483 -171.678C538.283 -168.89 542.544 -165.481 547.181 -161.527C549.639 -159.431 549.722 -155.632 547.367 -153.041ZM769.018 172.968C772.398 172.295 775.468 174.395 775.874 177.659C777.388 189.822 777.33 201.471 775.292 212.318C774.669 215.634 771.451 218.052 768.103 217.718C764.756 217.385 762.548 214.427 763.171 211.111C764.927 201.766 765.037 191.378 763.633 180.097C763.227 176.833 765.637 173.642 769.018 172.968ZM759.747 236.798C762.352 238.724 762.685 242.489 760.493 245.21C756.582 250.061 751.951 254.476 746.579 258.415C741.526 262.119 736.329 265.466 731.007 268.47C730.06 269.004 729.052 269.285 728.065 269.332C731.804 278.211 735.116 287.038 737.95 295.748C738.955 298.838 737.134 302.355 733.881 303.602C730.628 304.849 727.176 303.355 726.171 300.265C722.75 289.752 718.589 279.01 713.778 268.17C712.466 265.213 713.949 261.57 717.09 260.032C719.195 259.002 721.511 259.179 723.204 260.297C723.78 259.437 724.569 258.688 725.54 258.139C730.39 255.401 735.127 252.351 739.734 248.974C744.174 245.719 747.925 242.128 751.061 238.237C753.254 235.517 757.143 234.873 759.747 236.798ZM683.467 199.963C686.395 198.027 690.177 198.657 691.915 201.37C698.32 211.363 704.33 221.502 709.871 231.688C711.413 234.522 710.202 238.241 707.167 239.993C704.131 241.746 700.421 240.87 698.879 238.035C693.466 228.085 687.587 218.166 681.315 208.38C679.577 205.667 680.54 201.899 683.467 199.963ZM670.813 181.579C667.995 183.674 664.162 183.271 662.251 180.679C655.42 171.414 648.281 162.374 640.905 153.657C638.824 151.199 639.323 147.382 642.018 145.132C644.713 142.882 648.584 143.051 650.665 145.509C658.197 154.411 665.484 163.638 672.455 173.093C674.366 175.685 673.63 179.485 670.813 181.579ZM627.046 128.613C624.49 131.016 620.595 131.092 618.346 128.783C610.164 120.383 601.803 112.449 593.344 105.09C590.907 102.971 590.859 99.1675 593.237 96.5959C595.615 94.0243 599.518 93.6579 601.954 95.7776C610.653 103.344 619.229 111.483 627.602 120.081C629.851 122.39 629.602 126.21 627.046 128.613ZM575.635 82.6813C573.495 85.4392 569.613 86.1584 566.966 84.2876C557.151 77.3522 547.345 71.3359 537.672 66.3874C534.763 64.8995 533.84 61.2759 535.61 58.294C537.38 55.3119 541.172 54.1007 544.081 55.5886C554.288 60.8104 564.541 67.1098 574.717 74.3003C577.364 76.1711 577.775 79.9234 575.635 82.6813ZM739.509 325.521C742.866 324.69 746.049 326.633 746.619 329.86C748.873 342.627 749.835 354.975 749.264 366.635C749.101 369.965 746.212 372.762 742.812 372.882C739.411 373.002 736.786 370.399 736.949 367.069C737.469 356.447 736.601 344.974 734.464 332.87C733.894 329.642 736.153 326.352 739.509 325.521ZM702.68 274.886C703.414 278.068 701.314 281.45 697.99 282.438C686.446 285.87 674.591 288.031 662.59 289.07C659.186 289.365 656.413 286.913 656.397 283.593C656.38 280.274 659.127 277.344 662.532 277.049C673.737 276.079 684.716 274.069 695.332 270.913C698.656 269.924 701.946 271.703 702.68 274.886ZM514.43 49.8698C513.293 53.0934 509.77 55.0214 506.561 54.1761C494.675 51.0455 483.387 49.9973 472.899 51.2016C469.496 51.5924 466.645 49.2261 466.53 45.9166C466.415 42.607 469.081 39.6073 472.483 39.2166C484.839 37.7978 497.681 39.0798 510.676 42.5024C513.885 43.3477 515.566 46.6462 514.43 49.8698ZM737.878 395.845C740.973 396.974 742.334 400.431 740.917 403.566C738.106 409.787 734.551 415.602 730.193 420.918C725.986 426.05 721.556 430.857 716.907 435.33C714.379 437.761 710.481 437.886 708.2 435.607C705.92 433.328 706.12 429.51 708.648 427.078C712.892 422.995 716.956 418.587 720.833 413.859C724.394 409.515 727.342 404.712 729.707 399.48C731.124 396.344 734.782 394.717 737.878 395.845ZM635.221 283.587C634.667 286.909 631.495 289.387 628.136 289.122C616.691 288.218 605.234 286.442 593.893 283.909C590.644 283.183 588.834 279.958 589.851 276.705C590.868 273.453 594.326 271.404 597.576 272.13C608.415 274.551 619.312 276.237 630.142 277.092C633.502 277.357 635.775 280.265 635.221 283.587ZM444 54.4837C445.853 57.1173 445.041 60.9077 442.185 62.9498C437.716 66.1456 433.415 70.0364 429.32 74.6968C425.622 78.9054 422.697 83.284 420.468 87.7946C418.939 90.8873 415.234 92.3878 412.192 91.1461C409.15 89.9045 407.923 86.3908 409.451 83.2982C412.215 77.7066 415.809 72.3497 420.263 67.2802C425.008 61.8792 430.088 57.2632 435.473 53.4127C438.328 51.3706 442.146 51.8501 444 54.4837ZM569.978 270.97C568.595 274.118 564.952 275.783 561.841 274.689C551.199 270.946 540.762 266.594 530.644 261.732C527.694 260.315 526.682 256.721 528.382 253.705C530.083 250.689 533.853 249.392 536.802 250.81C546.564 255.5 556.617 259.691 566.85 263.29C569.961 264.384 571.361 267.822 569.978 270.97ZM688.951 449.967C690.446 452.828 689.179 456.533 686.12 458.242C674.804 464.564 662.679 469.343 649.829 472.53C646.473 473.362 643.289 471.421 642.718 468.194C642.146 464.967 644.404 461.676 647.76 460.844C659.485 457.937 670.479 453.594 680.706 447.881C683.765 446.172 687.457 447.106 688.951 449.967ZM510.501 243.948C508.523 246.813 504.673 247.756 501.902 246.054C492.278 240.141 483.094 233.788 474.472 227.096C471.916 225.112 471.667 221.333 473.915 218.655C476.164 215.978 480.059 215.415 482.616 217.399C490.919 223.844 499.776 229.971 509.065 235.679C511.836 237.381 512.479 241.083 510.501 243.948ZM408.341 111.824C411.74 111.345 414.661 113.63 414.867 116.928C415.461 126.46 418.127 136.463 422.69 146.678C424.009 149.631 422.534 153.277 419.395 154.821C416.257 156.365 412.643 155.223 411.324 152.269C406.342 141.116 403.255 129.811 402.56 118.663C402.355 115.365 404.943 112.303 408.341 111.824ZM458.723 205.397C456.205 207.839 452.306 207.98 450.014 205.712C441.832 197.614 434.482 189.206 428.145 180.628C426.232 178.038 426.964 174.239 429.78 172.141C432.596 170.044 436.43 170.444 438.343 173.034C444.32 181.125 451.301 189.119 459.132 196.87C461.424 199.138 461.24 202.956 458.723 205.397ZM619.405 471.102C619.177 474.435 616.239 477.182 612.842 477.238C600.942 477.437 588.596 476.473 575.845 474.329C572.547 473.775 570.559 470.662 571.404 467.375C572.25 464.089 575.608 461.875 578.906 462.429C590.992 464.461 602.588 465.357 613.665 465.172C617.062 465.115 619.632 467.77 619.405 471.102ZM549.311 461.962C548.028 465.144 544.431 466.918 541.278 465.925C530.341 462.481 519.15 458.244 507.725 453.2C504.725 451.876 503.597 448.324 505.207 445.265C506.817 442.207 510.554 440.802 513.554 442.126C524.626 447.013 535.422 451.098 545.924 454.404C549.077 455.397 550.594 458.781 549.311 461.962ZM485.179 435.316C483.33 438.256 479.514 439.368 476.655 437.8C466.708 432.342 456.602 426.304 446.349 419.676C443.621 417.913 443.061 414.191 445.098 411.363C447.135 408.535 450.998 407.672 453.726 409.436C463.77 415.929 473.648 421.83 483.349 427.152C486.208 428.72 487.027 432.376 485.179 435.316ZM426.863 398.768C424.68 401.496 420.792 402.154 418.18 400.239C409.061 393.557 399.839 386.423 390.518 378.83C388.012 376.788 387.847 372.998 390.151 370.364C392.455 367.73 396.355 367.25 398.861 369.292C408.045 376.774 417.122 383.794 426.084 390.362C428.697 392.277 429.045 396.041 426.863 398.768ZM373.365 356.057C370.963 358.607 367.06 358.936 364.647 356.791C356.191 349.275 347.662 341.39 339.066 333.131C336.74 330.897 336.87 327.081 339.356 324.608C341.842 322.136 345.743 321.943 348.069 324.178C356.569 332.344 364.996 340.134 373.344 347.555C375.757 349.699 375.767 353.506 373.365 356.057ZM323.682 309.021C321.125 311.423 317.23 311.499 314.982 309.189C307.114 301.105 299.194 292.713 291.226 284.008C289.051 281.632 289.41 277.811 292.029 275.475C294.649 273.139 298.535 273.171 300.71 275.547C308.606 284.174 316.451 292.486 324.241 300.489C326.489 302.799 326.239 306.619 323.682 309.021ZM277.387 259.026C274.715 261.303 270.839 261.175 268.729 258.741C261.318 250.191 253.869 241.372 246.385 232.284C244.339 229.798 244.885 225.983 247.605 223.764C250.326 221.544 254.191 221.76 256.237 224.246C263.665 233.267 271.056 242.016 278.407 250.497C280.516 252.931 280.06 256.749 277.387 259.026ZM233.795 206.59C231.032 208.758 227.18 208.463 225.19 205.931C221.626 201.397 218.055 196.803 214.477 192.147C212.515 189.593 213.18 185.787 215.962 183.646C218.745 181.504 222.591 181.837 224.553 184.39C228.107 189.016 231.654 193.579 235.193 198.082C237.183 200.613 236.557 204.423 233.795 206.59Z" fill="#434343"/>
<path d="M556.407 312.502L472.314 402.915L661.86 376.098L556.407 312.502Z" fill="#FE6D44"/>
<path fill-rule="evenodd" clip-rule="evenodd" d="M644.912 370.694L640.443 371.326C639.583 371.448 638.984 372.25 639.104 373.118C639.224 373.987 640.019 374.592 640.879 374.47L645.348 373.838C646.208 373.716 646.807 372.914 646.687 372.046C646.566 371.177 645.772 370.572 644.912 370.694ZM627.034 373.223L618.094 374.488C617.235 374.609 616.636 375.412 616.756 376.28C616.876 377.148 617.671 377.754 618.531 377.632L627.47 376.367C628.329 376.246 628.929 375.443 628.808 374.575C628.688 373.707 627.893 373.101 627.034 373.223ZM604.686 376.385L595.746 377.65C594.887 377.771 594.288 378.574 594.408 379.442C594.528 380.31 595.323 380.915 596.182 380.794L605.122 379.529C605.981 379.407 606.581 378.605 606.46 377.737C606.34 376.868 605.545 376.263 604.686 376.385ZM582.338 379.547L573.398 380.811C572.539 380.933 571.94 381.735 572.06 382.604C572.18 383.472 572.975 384.077 573.834 383.955L582.774 382.691C583.633 382.569 584.233 381.767 584.112 380.898C583.992 380.03 583.197 379.425 582.338 379.547ZM559.99 382.708L551.05 383.973C550.191 384.095 549.591 384.897 549.712 385.765C549.832 386.634 550.627 387.239 551.486 387.117L560.426 385.853C561.285 385.731 561.884 384.928 561.764 384.06C561.644 383.192 560.849 382.587 559.99 382.708ZM537.641 385.87L528.702 387.135C527.843 387.257 527.243 388.059 527.364 388.927C527.484 389.795 528.279 390.401 529.138 390.279L538.078 389.014C538.937 388.893 539.536 388.09 539.416 387.222C539.296 386.354 538.501 385.749 537.641 385.87ZM515.293 389.032L506.354 390.297C505.495 390.418 504.895 391.221 505.016 392.089C505.136 392.957 505.931 393.562 506.79 393.441L515.729 392.176C516.589 392.054 517.188 391.252 517.068 390.384C516.948 389.516 516.153 388.91 515.293 389.032ZM492.945 392.194L488.476 392.826C487.616 392.948 487.017 393.75 487.137 394.618C487.258 395.487 488.052 396.092 488.912 395.97L493.381 395.338C494.241 395.216 494.84 394.414 494.72 393.546C494.599 392.677 493.805 392.072 492.945 392.194Z" fill="#1B1F21"/>
<path d="M558.865 326.329L661.86 376.097L644.357 249.895L558.865 326.329Z" fill="#FE6D44"/>
<path d="M558.865 326.329L661.86 376.097L644.357 249.895L558.865 326.329Z" fill="#FCFAF9" fill-opacity="0.12"/>
<path fill-rule="evenodd" clip-rule="evenodd" d="M654.848 365.37C655.321 365.025 655.566 364.445 655.485 363.863L654.766 358.681C654.646 357.813 653.851 357.208 652.992 357.329C652.132 357.451 651.533 358.253 651.653 359.122L651.959 361.327L650.079 360.388C649.301 359.999 648.359 360.321 647.974 361.106C647.589 361.892 647.907 362.844 648.685 363.233L653.231 365.505C653.754 365.766 654.376 365.714 654.848 365.37ZM651.991 350.111C652.85 349.989 653.45 349.187 653.329 348.319L651.892 337.956C651.772 337.088 650.977 336.483 650.117 336.604C649.258 336.726 648.659 337.528 648.779 338.397L650.216 348.759C650.337 349.627 651.131 350.233 651.991 350.111ZM649.116 329.386C649.976 329.264 650.575 328.462 650.455 327.594L649.018 317.231C648.897 316.363 648.103 315.758 647.243 315.879C646.383 316.001 645.784 316.803 645.905 317.672L647.342 328.034C647.462 328.902 648.257 329.508 649.116 329.386ZM646.242 308.661C647.102 308.539 647.701 307.737 647.58 306.869L646.143 296.506C646.023 295.638 645.228 295.033 644.369 295.154C643.509 295.276 642.91 296.078 643.03 296.947L644.467 307.309C644.588 308.177 645.382 308.783 646.242 308.661ZM643.368 287.936C644.227 287.814 644.826 287.012 644.706 286.144L643.987 280.963C643.867 280.094 643.073 279.489 642.213 279.611C641.353 279.732 640.754 280.535 640.874 281.403L641.593 286.584C641.714 287.452 642.508 288.058 643.368 287.936ZM641.698 357.97C642.083 357.184 641.765 356.232 640.987 355.843L631.894 351.298C631.116 350.909 630.173 351.231 629.788 352.017C629.403 352.803 629.722 353.755 630.5 354.144L639.592 358.688C640.37 359.077 641.313 358.756 641.698 357.97ZM623.513 348.88C623.898 348.095 623.579 347.142 622.801 346.754L613.709 342.209C612.931 341.82 611.988 342.142 611.603 342.928C611.218 343.713 611.537 344.666 612.315 345.054L621.407 349.599C622.185 349.988 623.128 349.666 623.513 348.88ZM605.328 339.791C605.713 339.005 605.394 338.053 604.616 337.664L595.523 333.12C594.746 332.731 593.803 333.053 593.418 333.838C593.033 334.624 593.351 335.576 594.129 335.965L603.222 340.51C604 340.899 604.943 340.577 605.328 339.791ZM587.142 330.702C587.527 329.916 587.209 328.964 586.431 328.575L581.885 326.303C581.107 325.914 580.164 326.235 579.779 327.021C579.394 327.807 579.712 328.759 580.49 329.148L585.037 331.42C585.815 331.809 586.757 331.487 587.142 330.702Z" fill="#1B1F21"/>
<path d="M557.806 326.481L472.314 402.915L454.811 276.713L557.806 326.481Z" fill="#FE6D44"/>
<path d="M557.806 326.481L472.314 402.915L454.811 276.713L557.806 326.481Z" fill="#FCFAF9" fill-opacity="0.12"/>
<path fill-rule="evenodd" clip-rule="evenodd" d="M462.501 287.015C463.36 286.893 464.156 287.497 464.277 288.365L464.98 293.376C465.101 294.244 464.503 295.048 463.644 295.17C462.784 295.293 461.989 294.689 461.867 293.821L461.165 288.81C461.043 287.942 461.641 287.138 462.501 287.015ZM464.608 302.05C465.467 301.927 466.262 302.531 466.384 303.399L467.789 313.422C467.91 314.29 467.312 315.094 466.453 315.217C465.593 315.339 464.798 314.735 464.676 313.867L463.272 303.844C463.15 302.976 463.748 302.173 464.608 302.05ZM467.417 322.096C468.276 321.973 469.072 322.577 469.193 323.445L470.598 333.468C470.719 334.336 470.121 335.14 469.262 335.263C468.402 335.385 467.607 334.781 467.485 333.913L466.081 323.89C465.959 323.022 466.557 322.219 467.417 322.096ZM470.226 342.142C471.085 342.019 471.881 342.623 472.002 343.491L473.407 353.514C473.529 354.383 472.931 355.186 472.071 355.309C471.212 355.432 470.416 354.827 470.295 353.959L468.89 343.936C468.768 343.068 469.367 342.265 470.226 342.142ZM473.035 362.188C473.895 362.065 474.69 362.669 474.812 363.538L476.216 373.561C476.338 374.429 475.74 375.232 474.88 375.355C474.021 375.478 473.225 374.874 473.104 374.005L471.699 363.982C471.578 363.114 472.176 362.311 473.035 362.188ZM475.844 382.234C476.704 382.111 477.499 382.716 477.621 383.584L477.907 385.625L479.463 384.197C480.105 383.607 481.099 383.654 481.683 384.303C482.267 384.952 482.219 385.956 481.577 386.546L477.824 389.992C477.393 390.388 476.781 390.51 476.234 390.311C475.686 390.111 475.292 389.622 475.211 389.04L474.508 384.028C474.387 383.16 474.985 382.357 475.844 382.234ZM486.863 379.546C486.279 378.897 486.327 377.893 486.969 377.303L494.475 370.41C495.118 369.821 496.112 369.868 496.695 370.517C497.279 371.166 497.232 372.17 496.59 372.759L489.084 379.652C488.441 380.242 487.447 380.194 486.863 379.546ZM501.876 365.76C501.292 365.111 501.339 364.107 501.982 363.517L509.488 356.624C510.13 356.034 511.124 356.082 511.708 356.731C512.292 357.379 512.245 358.383 511.603 358.973L504.096 365.866C503.454 366.456 502.46 366.408 501.876 365.76ZM516.889 351.974C516.305 351.325 516.352 350.321 516.994 349.731L524.501 342.838C525.143 342.248 526.137 342.296 526.721 342.945C527.305 343.593 527.257 344.597 526.615 345.187L519.109 352.08C518.467 352.67 517.473 352.622 516.889 351.974ZM531.901 338.187C531.317 337.539 531.365 336.535 532.007 335.945L535.76 332.498C536.402 331.909 537.396 331.956 537.98 332.605C538.564 333.254 538.517 334.258 537.875 334.847L534.121 338.294C533.479 338.884 532.485 338.836 531.901 338.187Z" fill="#1B1F21"/>
<path d="M560.264 340.309L454.811 276.713L644.357 249.896L560.264 340.309Z" fill="#FE6D44"/>
<path d="M560.264 340.309L454.811 276.713L644.357 249.896L560.264 340.309Z" fill="#FCFAF9" fill-opacity="0.25"/>
<path fill-rule="evenodd" clip-rule="evenodd" d="M635.795 248.396C636.514 249.078 636.549 250.22 635.874 250.946L632.84 254.207C632.165 254.933 631.035 254.969 630.316 254.287C629.597 253.605 629.562 252.463 630.237 251.737L633.27 248.476C633.946 247.75 635.076 247.714 635.795 248.396ZM462.635 272.895C463.141 272.039 464.238 271.76 465.084 272.271L468.888 274.565C469.735 275.075 470.012 276.183 469.506 277.038C469 277.894 467.904 278.173 467.057 277.662L463.253 275.368C462.406 274.857 462.13 273.75 462.635 272.895ZM626.228 258.682C626.947 259.364 626.982 260.506 626.307 261.232L620.24 267.754C619.565 268.48 618.435 268.516 617.716 267.834C616.997 267.152 616.962 266.01 617.637 265.284L623.704 258.762C624.379 258.035 625.509 258 626.228 258.682ZM474.632 280.13C475.138 279.274 476.234 278.995 477.081 279.506L484.689 284.094C485.536 284.604 485.812 285.712 485.307 286.567C484.801 287.422 483.704 287.702 482.857 287.191L475.25 282.603C474.403 282.092 474.126 280.985 474.632 280.13ZM613.628 272.229C614.347 272.911 614.382 274.053 613.707 274.779L607.64 281.301C606.965 282.027 605.835 282.063 605.116 281.381C604.397 280.699 604.362 279.557 605.037 278.831L611.104 272.309C611.779 271.582 612.909 271.547 613.628 272.229ZM490.432 289.658C490.938 288.803 492.035 288.524 492.882 289.034L500.489 293.622C501.336 294.133 501.613 295.241 501.107 296.096C500.601 296.951 499.505 297.231 498.658 296.72L491.05 292.132C490.203 291.621 489.927 290.514 490.432 289.658ZM601.028 285.776C601.747 286.458 601.782 287.6 601.107 288.326L595.04 294.848C594.365 295.574 593.235 295.61 592.516 294.928C591.797 294.246 591.761 293.104 592.437 292.378L598.504 285.855C599.179 285.129 600.309 285.094 601.028 285.776ZM506.233 299.187C506.739 298.332 507.835 298.053 508.682 298.563L516.29 303.151C517.137 303.662 517.413 304.769 516.908 305.625C516.402 306.48 515.305 306.76 514.458 306.249L506.851 301.661C506.004 301.15 505.727 300.043 506.233 299.187ZM588.428 299.323C589.147 300.005 589.182 301.146 588.507 301.873L582.44 308.395C581.765 309.121 580.635 309.157 579.916 308.475C579.197 307.793 579.161 306.651 579.837 305.925L585.903 299.402C586.579 298.676 587.709 298.641 588.428 299.323ZM522.033 308.716C522.539 307.861 523.636 307.581 524.483 308.092L532.09 312.68C532.937 313.191 533.214 314.298 532.708 315.154C532.202 316.009 531.106 316.288 530.259 315.778L522.651 311.19C521.804 310.679 521.528 309.572 522.033 308.716ZM575.828 312.87C576.547 313.552 576.582 314.693 575.907 315.42L569.84 321.942C569.165 322.668 568.035 322.704 567.316 322.022C566.597 321.34 566.561 320.198 567.237 319.472L573.303 312.949C573.979 312.223 575.109 312.188 575.828 312.87ZM537.834 318.245C538.34 317.39 539.436 317.11 540.283 317.621L547.891 322.209C548.738 322.72 549.014 323.827 548.508 324.683C548.003 325.538 546.906 325.817 546.059 325.307L538.452 320.719C537.605 320.208 537.328 319.1 537.834 318.245ZM553.634 327.774C554.14 326.919 555.237 326.639 556.084 327.15L558.654 328.7L560.703 326.496C561.379 325.77 562.509 325.735 563.228 326.417C563.947 327.099 563.982 328.24 563.307 328.966L560.273 332.228C559.699 332.845 558.776 332.976 558.056 332.542L554.252 330.248C553.405 329.737 553.129 328.629 553.634 327.774Z" fill="#1B1F21"/>
<ellipse cx="21.7825" cy="21.9919" rx="21.7825" ry="21.9919" transform="matrix(0.99014 -0.140084 0.137376 0.990519 617.05 235.103)" fill="#57ACBC"/>
<path d="M650.241 257.192L650.826 261.412L636.448 263.446L635.863 259.226L640.378 258.587L639.196 250.066L634.681 250.705L634.24 247.526C635.467 247.278 636.808 246.762 638.263 245.979C639.714 245.178 640.961 244.322 642.002 243.411L643.858 243.148L645.891 257.807L650.241 257.192Z" fill="#FFFFFE"/>
<g opacity="0.62" filter="url(#filter0_f_1003_2431)">
<path d="M560.477 148.845L518 167.781L587.889 186.695L560.477 148.845Z" fill="#FE6D44"/>
<path fill-rule="evenodd" clip-rule="evenodd" d="M582.785 182.27L581.137 181.824C580.81 181.735 580.473 181.932 580.385 182.262C580.297 182.593 580.492 182.933 580.819 183.022L582.467 183.468C582.795 183.557 583.131 183.36 583.219 183.029C583.307 182.699 583.113 182.359 582.785 182.27ZM576.193 180.486L572.897 179.594C572.569 179.505 572.233 179.702 572.145 180.032C572.057 180.363 572.252 180.703 572.579 180.792L575.875 181.684C576.203 181.773 576.539 181.576 576.627 181.245C576.715 180.915 576.52 180.575 576.193 180.486ZM567.953 178.256L564.657 177.364C564.329 177.275 563.993 177.472 563.905 177.802C563.817 178.133 564.011 178.473 564.339 178.562L567.635 179.454C567.962 179.542 568.299 179.346 568.387 179.015C568.475 178.685 568.28 178.345 567.953 178.256ZM559.713 176.026L556.417 175.134C556.089 175.045 555.752 175.242 555.665 175.572C555.577 175.903 555.771 176.243 556.099 176.332L559.395 177.224C559.722 177.312 560.059 177.116 560.147 176.785C560.234 176.455 560.04 176.115 559.713 176.026ZM551.472 173.796L548.176 172.904C547.849 172.815 547.512 173.012 547.425 173.342C547.337 173.673 547.531 174.013 547.859 174.102L551.155 174.994C551.482 175.082 551.819 174.886 551.907 174.555C551.994 174.225 551.8 173.885 551.472 173.796ZM543.232 171.566L539.936 170.674C539.609 170.585 539.272 170.782 539.184 171.112C539.097 171.443 539.291 171.783 539.618 171.872L542.915 172.764C543.242 172.852 543.579 172.656 543.666 172.325C543.754 171.995 543.56 171.655 543.232 171.566ZM534.992 169.336L531.696 168.444C531.369 168.355 531.032 168.552 530.944 168.882C530.856 169.213 531.051 169.553 531.378 169.642L534.674 170.534C535.002 170.622 535.339 170.426 535.426 170.095C535.514 169.765 535.32 169.425 534.992 169.336ZM526.752 167.106L525.104 166.66C524.777 166.571 524.44 166.768 524.352 167.098C524.264 167.429 524.459 167.769 524.786 167.858L526.434 168.304C526.762 168.392 527.098 168.196 527.186 167.865C527.274 167.535 527.08 167.195 526.752 167.106Z" fill="#1B1F21"/>
<path d="M559.312 154.026L587.889 186.696L600.234 140.163L559.312 154.026Z" fill="#FE6D44"/>
<path d="M559.312 154.026L587.889 186.696L600.234 140.163L559.312 154.026Z" fill="#FCFAF9" fill-opacity="0.12"/>
<path fill-rule="evenodd" clip-rule="evenodd" d="M587.02 181.936C587.242 181.885 587.418 181.714 587.477 181.492L587.984 179.581C588.071 179.25 587.877 178.91 587.55 178.822C587.222 178.733 586.885 178.93 586.798 179.26L586.592 180.037L586.099 179.458C585.878 179.199 585.49 179.169 585.233 179.393C584.976 179.616 584.947 180.007 585.168 180.267L586.418 181.735C586.567 181.91 586.799 181.987 587.02 181.936ZM588.245 176.199C588.573 176.287 588.91 176.091 588.997 175.76L590.011 171.94C590.099 171.609 589.904 171.269 589.577 171.18C589.249 171.092 588.913 171.288 588.825 171.619L587.811 175.439C587.724 175.77 587.918 176.11 588.245 176.199ZM590.273 168.557C590.6 168.646 590.937 168.449 591.025 168.119L592.038 164.298C592.126 163.967 591.932 163.627 591.604 163.538C591.277 163.45 590.94 163.646 590.852 163.977L589.839 167.798C589.751 168.129 589.945 168.468 590.273 168.557ZM592.3 160.915C592.628 161.004 592.964 160.808 593.052 160.477L594.066 156.656C594.153 156.325 593.959 155.985 593.632 155.897C593.304 155.808 592.967 156.004 592.88 156.335L591.866 160.156C591.778 160.487 591.973 160.827 592.3 160.915ZM594.327 153.274C594.655 153.362 594.992 153.166 595.079 152.835L595.586 150.925C595.674 150.594 595.48 150.254 595.152 150.165C594.825 150.077 594.488 150.273 594.4 150.604L593.893 152.514C593.806 152.845 594 153.185 594.327 153.274ZM583.533 177.396C583.79 177.173 583.819 176.781 583.598 176.522L581.097 173.585C580.876 173.325 580.489 173.296 580.232 173.519C579.975 173.742 579.945 174.134 580.167 174.393L582.667 177.33C582.888 177.59 583.276 177.619 583.533 177.396ZM578.532 171.522C578.789 171.299 578.818 170.908 578.597 170.648L576.096 167.711C575.875 167.452 575.487 167.422 575.23 167.645C574.973 167.869 574.944 168.26 575.165 168.52L577.666 171.457C577.887 171.716 578.275 171.746 578.532 171.522ZM573.53 165.649C573.787 165.425 573.816 165.034 573.595 164.774L571.094 161.838C570.873 161.578 570.486 161.548 570.229 161.772C569.972 161.995 569.942 162.386 570.164 162.646L572.664 165.583C572.885 165.843 573.273 165.872 573.53 165.649ZM568.529 159.775C568.786 159.552 568.815 159.16 568.594 158.901L567.343 157.432C567.122 157.173 566.735 157.143 566.478 157.366C566.221 157.59 566.191 157.981 566.412 158.241L567.663 159.709C567.884 159.969 568.271 159.998 568.529 159.775Z" fill="black"/>
<path d="M558.922 153.919L518 167.781L530.345 121.248L558.922 153.919Z" fill="#FE6D44"/>
<path d="M558.922 153.919L518 167.781L530.345 121.248L558.922 153.919Z" fill="#FCFAF9" fill-opacity="0.12"/>
<path fill-rule="evenodd" clip-rule="evenodd" d="M531.522 125.961C531.849 126.049 532.044 126.389 531.957 126.72L531.469 128.569C531.382 128.9 531.046 129.096 530.718 129.008C530.39 128.92 530.195 128.58 530.283 128.25L530.77 126.401C530.858 126.07 531.194 125.873 531.522 125.961ZM530.059 131.508C530.386 131.596 530.581 131.936 530.494 132.267L529.518 135.964C529.431 136.295 529.095 136.492 528.767 136.404C528.439 136.316 528.245 135.976 528.332 135.645L529.307 131.947C529.395 131.616 529.731 131.42 530.059 131.508ZM528.108 138.904C528.435 138.992 528.63 139.331 528.543 139.662L527.567 143.36C527.48 143.691 527.144 143.888 526.816 143.8C526.489 143.711 526.294 143.372 526.381 143.041L527.356 139.343C527.444 139.012 527.78 138.815 528.108 138.904ZM526.157 146.299C526.485 146.387 526.679 146.727 526.592 147.058L525.617 150.756C525.529 151.087 525.193 151.283 524.865 151.195C524.538 151.107 524.343 150.767 524.43 150.437L525.406 146.739C525.493 146.408 525.829 146.211 526.157 146.299ZM524.206 153.695C524.534 153.783 524.729 154.123 524.641 154.454L523.666 158.151C523.579 158.482 523.242 158.679 522.915 158.591C522.587 158.503 522.392 158.163 522.479 157.832L523.455 154.134C523.542 153.803 523.878 153.607 524.206 153.695ZM522.255 161.091C522.583 161.179 522.778 161.518 522.69 161.849L522.501 162.566L523.216 162.313C523.536 162.2 523.887 162.37 523.999 162.693C524.111 163.017 523.942 163.37 523.622 163.484L521.812 164.124C521.598 164.2 521.359 164.15 521.192 163.993C521.025 163.837 520.958 163.601 521.016 163.379L521.504 161.53C521.591 161.199 521.928 161.002 522.255 161.091ZM526.459 161.823C526.347 161.5 526.516 161.146 526.836 161.033L530.456 159.752C530.775 159.639 531.126 159.809 531.238 160.132C531.35 160.456 531.181 160.809 530.861 160.923L527.242 162.203C526.922 162.316 526.572 162.146 526.459 161.823ZM533.699 159.262C533.587 158.939 533.755 158.585 534.075 158.472L537.695 157.191C538.015 157.078 538.365 157.248 538.477 157.571C538.589 157.895 538.421 158.248 538.101 158.362L534.481 159.642C534.161 159.755 533.811 159.585 533.699 159.262ZM540.938 156.701C540.826 156.378 540.994 156.024 541.314 155.911L544.934 154.63C545.254 154.517 545.604 154.687 545.716 155.01C545.828 155.334 545.66 155.687 545.34 155.801L541.72 157.081C541.4 157.194 541.05 157.024 540.938 156.701ZM548.177 154.14C548.065 153.817 548.233 153.463 548.553 153.35L550.363 152.71C550.683 152.596 551.034 152.767 551.146 153.09C551.258 153.413 551.089 153.767 550.769 153.88L548.959 154.52C548.639 154.633 548.289 154.463 548.177 154.14Z" fill="black"/>
<path d="M557.757 159.099L530.345 121.249L600.235 140.163L557.757 159.099Z" fill="#FE6D44"/>
<path d="M557.757 159.099L530.345 121.249L600.235 140.163L557.757 159.099Z" fill="#FCFAF9" fill-opacity="0.25"/>
<path fill-rule="evenodd" clip-rule="evenodd" d="M597.494 138.355C597.65 138.711 597.49 139.127 597.138 139.284L595.605 139.967C595.253 140.124 594.841 139.963 594.685 139.607C594.53 139.251 594.689 138.835 595.042 138.678L596.574 137.995C596.927 137.838 597.338 137.999 597.494 138.355ZM533.613 121.067C533.924 120.837 534.361 120.906 534.588 121.22L535.577 122.585C535.804 122.899 535.737 123.34 535.426 123.57C535.115 123.799 534.678 123.731 534.451 123.417L533.462 122.052C533.234 121.738 533.302 121.297 533.613 121.067ZM592.662 140.509C592.817 140.865 592.658 141.281 592.305 141.438L589.241 142.804C588.888 142.962 588.476 142.8 588.321 142.444C588.165 142.088 588.325 141.672 588.677 141.515L591.742 140.149C592.094 139.992 592.506 140.153 592.662 140.509ZM536.732 125.373C537.043 125.143 537.479 125.212 537.706 125.526L539.684 128.256C539.912 128.57 539.844 129.011 539.533 129.241C539.222 129.471 538.785 129.402 538.558 129.088L536.58 126.358C536.353 126.044 536.421 125.603 536.732 125.373ZM586.297 143.346C586.453 143.702 586.293 144.118 585.941 144.276L582.876 145.642C582.524 145.799 582.112 145.638 581.956 145.282C581.801 144.926 581.96 144.51 582.313 144.353L585.377 142.986C585.73 142.829 586.142 142.99 586.297 143.346ZM540.839 131.044C541.15 130.814 541.586 130.883 541.814 131.197L543.791 133.927C544.019 134.242 543.951 134.682 543.64 134.912C543.329 135.142 542.893 135.074 542.665 134.759L540.688 132.029C540.46 131.715 540.528 131.274 540.839 131.044ZM579.933 146.184C580.088 146.54 579.929 146.956 579.576 147.113L576.512 148.479C576.159 148.636 575.747 148.475 575.592 148.119C575.436 147.763 575.596 147.347 575.948 147.19L579.013 145.824C579.365 145.667 579.777 145.828 579.933 146.184ZM544.946 136.715C545.257 136.486 545.694 136.554 545.921 136.868L547.899 139.599C548.126 139.913 548.058 140.354 547.747 140.583C547.436 140.813 547 140.745 546.772 140.431L544.795 137.7C544.567 137.386 544.635 136.945 544.946 136.715ZM573.568 149.021C573.724 149.377 573.564 149.793 573.212 149.95L570.147 151.316C569.795 151.473 569.383 151.312 569.227 150.956C569.072 150.6 569.231 150.184 569.584 150.027L572.648 148.661C573.001 148.504 573.413 148.665 573.568 149.021ZM549.053 142.387C549.364 142.157 549.801 142.225 550.028 142.539L552.006 145.27C552.233 145.584 552.166 146.025 551.855 146.255C551.544 146.484 551.107 146.416 550.88 146.102L548.902 143.371C548.675 143.057 548.742 142.616 549.053 142.387ZM567.204 151.858C567.359 152.214 567.199 152.63 566.847 152.787L563.783 154.153C563.43 154.311 563.018 154.149 562.863 153.793C562.707 153.437 562.867 153.021 563.219 152.864L566.284 151.498C566.636 151.341 567.048 151.502 567.204 151.858ZM553.161 148.058C553.472 147.828 553.908 147.897 554.136 148.211L556.113 150.941C556.341 151.255 556.273 151.696 555.962 151.926C555.651 152.156 555.214 152.087 554.987 151.773L553.009 149.043C552.782 148.728 552.85 148.288 553.161 148.058ZM557.268 153.729C557.579 153.499 558.015 153.568 558.243 153.882L558.9 154.79L559.919 154.335C560.272 154.178 560.683 154.34 560.839 154.696C560.995 155.052 560.835 155.468 560.482 155.625L558.95 156.308C558.65 156.441 558.299 156.346 558.106 156.079L557.117 154.714C556.889 154.4 556.957 153.959 557.268 153.729Z" fill="#1B1F21"/>
</g>
</g>
</g>
<defs>
<filter id="filter0_f_1003_2431" x="510" y="112.931" width="98.2345" height="81.7651" filterUnits="userSpaceOnUse" color-interpolation-filters="sRGB">
<feFlood flood-opacity="0" result="BackgroundImageFix"/>
<feBlend mode="normal" in="SourceGraphic" in2="BackgroundImageFix" result="shape"/>
<feGaussianBlur stdDeviation="4" result="effect1_foregroundBlur_1003_2431"/>
</filter>
<clipPath id="clip0_1003_2431">
<path d="M0 32C0 14.3269 14.3269 0 32 0H704V498H32C14.3269 498 0 483.673 0 466V32Z" fill="white"/>
</clipPath>
</defs>
</svg>
